<svg width="8" height="16" viewBox="0 0 8 16" fill="none" xmlns="http://www.w3.org/2000/svg">
<path fill-rule="evenodd" clip-rule="evenodd" d="M1.13968 5.06064L5.54906 0.305449C5.92592 -0.100939 6.53787 -0.101926 6.91589 0.303163C7.29387 0.708303 7.29484 1.36612 6.91802 1.77251L2.50564 6.53082C2.13482 6.92733 1.93245 7.45123 1.93288 8.00904C1.93332 8.56686 2.13651 9.09034 2.50507 9.48306L6.91691 14.2264C7.29435 14.6322 7.2943 15.29 6.91686 15.6957C6.53947 16.1015 5.92752 16.1014 5.55012 15.6957L1.14132 10.9556C0.407311 10.1734 0.000923387 9.12649 5.26966e-06 8.01081C-0.000912848 6.89513 0.403832 5.84744 1.13968 5.06064Z" fill="#060714"/>
</svg>
